<mxfile host="app.diagrams.net" modified="2023-05-06T23:53:49.722Z" agent="Mozilla/5.0 (Macintosh; Intel Mac OS X 10_15_7) AppleWebKit/537.36 (KHTML, like Gecko) Chrome/112.0.0.0 Safari/537.36" version="21.2.7" etag="RHRSnHYaXT97bYggA9Ca" type="github">
  <diagram name="PÃ¡gina-1" id="V32puQyupqNA283qDNG-">
    <mxGraphModel>
      <root>
        <mxCell id="0" />
        <mxCell id="1" parent="0" />
      </root>
    </mxGraphModel>
  </diagram>
</mxfile>
